<?xml version="1.0" standalone="no"?>
<!DOCTYPE svg PUBLIC "-//W3C//DTD SVG 20010904//EN"
 "http://www.w3.org/TR/2001/REC-SVG-20010904/DTD/svg10.dtd">
<svg version="1.0" xmlns="http://www.w3.org/2000/svg"
 width="512.000000pt" height="512.000000pt" viewBox="0 0 512.000000 512.000000"
 preserveAspectRatio="xMidYMid meet">

<g transform="translate(0.000000,512.000000) scale(0.100000,-0.100000)"
fill="#000000" stroke="none">
<path d="M1774 4303 c-7 -16 -20 -725 -23 -1230 l-1 -203 -44 0 c-82 0 -76 23
-76 -311 l0 -299 53 0 c28 0 57 -4 64 -8 8 -5 13 -184 17 -672 4 -366 9 -689
12 -718 5 -46 8 -53 24 -49 10 2 195 121 411 262 217 142 431 282 476 311 l82
53 30 -37 c17 -20 31 -41 31 -45 0 -24 67 14 320 184 151 101 279 187 285 191
6 5 -1 26 -18 58 -28 50 -28 52 -10 72 10 11 160 115 333 231 342 228 441 303
500 378 51 65 55 80 31 126 -41 81 -118 141 -553 433 -172 116 -314 218 -316
226 -2 8 8 35 23 60 20 35 24 48 15 59 -24 28 -571 395 -590 395 -4 0 -21 -21
-39 -46 -19 -26 -39 -43 -46 -40 -7 2 -226 147 -487 320 -260 174 -479 316
-485 316 -6 0 -14 -8 -19 -17z m566 -714 c132 -45 561 -280 1073 -587 227
-136 344 -218 415 -290 49 -50 82 -112 82 -152 0 -71 -76 -163 -222 -268 -140
-100 -796 -486 -1098 -645 -421 -222 -544 -196 -598 125 -15 90 -17 188 -17
788 0 601 2 698 17 788 26 153 64 226 133 259 40 18 130 10 215 -18z"/>
<path d="M2746 3004 c-3 -26 -6 -165 -6 -310 l0 -264 -78 0 c-90 0 -134 -18
-170 -71 -20 -29 -23 -43 -20 -98 4 -58 7 -66 40 -97 20 -18 55 -38 77 -45 56
-17 122 8 161 62 l28 39 4 264 c2 146 7 268 11 272 12 12 107 -39 160 -86 63
-56 82 -50 74 22 -9 73 -45 137 -98 175 -87 63 -111 87 -135 135 -13 26 -28
48 -33 48 -4 0 -11 -21 -15 -46z"/>
</g>
</svg>
